<mxfile host="app.diagrams.net" modified="2021-06-22T14:59:49.137Z" agent="5.0 (X11)" etag="jDFsLleAgt563TdSZHCQ" version="14.8.0" type="github">
  <diagram id="V7bS7ZGvb8GI5Ki3fT6N" name="Page-1">
    <mxGraphModel dx="2590" dy="988" grid="1" gridSize="10" guides="1" tooltips="1" connect="1" arrows="1" fold="1" page="1" pageScale="1" pageWidth="1654" pageHeight="1169" math="0" shadow="0">
      <root>
        <mxCell id="0" />
        <mxCell id="1" parent="0" />
        <mxCell id="9oEyipRwHzk4dOdtvLpS-16" value="package_list" style="shape=table;startSize=30;container=1;collapsible=1;childLayout=tableLayout;fixedRows=1;rowLines=0;fontStyle=1;align=center;resizeLast=1;" parent="1" vertex="1">
          <mxGeometry x="520" y="164" width="220" height="420" as="geometry" />
        </mxCell>
        <mxCell id="9oEyipRwHzk4dOdtvLpS-17" value="" style="shape=partialRectangle;collapsible=0;dropTarget=0;pointerEvents=0;fillColor=none;top=0;left=0;bottom=0;right=0;points=[[0,0.5],[1,0.5]];portConstraint=eastwest;" parent="9oEyipRwHzk4dOdtvLpS-16" vertex="1">
          <mxGeometry y="30" width="220" height="30" as="geometry" />
        </mxCell>
        <mxCell id="9oEyipRwHzk4dOdtvLpS-18" value="PK" style="shape=partialRectangle;connectable=0;fillColor=none;top=0;left=0;bottom=0;right=0;editable=1;overflow=hidden;" parent="9oEyipRwHzk4dOdtvLpS-17" vertex="1">
          <mxGeometry width="20" height="30" as="geometry" />
        </mxCell>
        <mxCell id="9oEyipRwHzk4dOdtvLpS-19" value="Package ID    VARCHAR(255)" style="shape=partialRectangle;connectable=0;fillColor=none;top=0;left=0;bottom=0;right=0;align=left;spacingLeft=6;overflow=hidden;" parent="9oEyipRwHzk4dOdtvLpS-17" vertex="1">
          <mxGeometry x="20" width="200" height="30" as="geometry" />
        </mxCell>
        <mxCell id="9oEyipRwHzk4dOdtvLpS-20" value="" style="shape=partialRectangle;collapsible=0;dropTarget=0;pointerEvents=0;fillColor=none;top=0;left=0;bottom=0;right=0;points=[[0,0.5],[1,0.5]];portConstraint=eastwest;" parent="9oEyipRwHzk4dOdtvLpS-16" vertex="1">
          <mxGeometry y="60" width="220" height="30" as="geometry" />
        </mxCell>
        <mxCell id="9oEyipRwHzk4dOdtvLpS-21" value="" style="shape=partialRectangle;connectable=0;fillColor=none;top=0;left=0;bottom=0;right=0;editable=1;overflow=hidden;" parent="9oEyipRwHzk4dOdtvLpS-20" vertex="1">
          <mxGeometry width="20" height="30" as="geometry" />
        </mxCell>
        <mxCell id="9oEyipRwHzk4dOdtvLpS-22" value="Package_name   TEXT(50)" style="shape=partialRectangle;connectable=0;fillColor=none;top=0;left=0;bottom=0;right=0;align=left;spacingLeft=6;overflow=hidden;" parent="9oEyipRwHzk4dOdtvLpS-20" vertex="1">
          <mxGeometry x="20" width="200" height="30" as="geometry" />
        </mxCell>
        <mxCell id="9oEyipRwHzk4dOdtvLpS-23" value="" style="shape=partialRectangle;collapsible=0;dropTarget=0;pointerEvents=0;fillColor=none;top=0;left=0;bottom=0;right=0;points=[[0,0.5],[1,0.5]];portConstraint=eastwest;" parent="9oEyipRwHzk4dOdtvLpS-16" vertex="1">
          <mxGeometry y="90" width="220" height="30" as="geometry" />
        </mxCell>
        <mxCell id="9oEyipRwHzk4dOdtvLpS-24" value="" style="shape=partialRectangle;connectable=0;fillColor=none;top=0;left=0;bottom=0;right=0;editable=1;overflow=hidden;" parent="9oEyipRwHzk4dOdtvLpS-23" vertex="1">
          <mxGeometry width="20" height="30" as="geometry" />
        </mxCell>
        <mxCell id="9oEyipRwHzk4dOdtvLpS-25" value="Destination   TEXT(30)" style="shape=partialRectangle;connectable=0;fillColor=none;top=0;left=0;bottom=0;right=0;align=left;spacingLeft=6;overflow=hidden;container=0;" parent="9oEyipRwHzk4dOdtvLpS-23" vertex="1">
          <mxGeometry x="20" width="200" height="30" as="geometry">
            <mxRectangle x="20" width="200" height="30" as="alternateBounds" />
          </mxGeometry>
        </mxCell>
        <mxCell id="9oEyipRwHzk4dOdtvLpS-26" value="" style="shape=partialRectangle;collapsible=0;dropTarget=0;pointerEvents=0;fillColor=none;top=0;left=0;bottom=0;right=0;points=[[0,0.5],[1,0.5]];portConstraint=eastwest;" parent="9oEyipRwHzk4dOdtvLpS-16" vertex="1">
          <mxGeometry y="120" width="220" height="30" as="geometry" />
        </mxCell>
        <mxCell id="9oEyipRwHzk4dOdtvLpS-27" value="" style="shape=partialRectangle;connectable=0;fillColor=none;top=0;left=0;bottom=0;right=0;editable=1;overflow=hidden;" parent="9oEyipRwHzk4dOdtvLpS-26" vertex="1">
          <mxGeometry width="20" height="30" as="geometry" />
        </mxCell>
        <mxCell id="9oEyipRwHzk4dOdtvLpS-28" value="Duration  INT(2)" style="shape=partialRectangle;connectable=0;top=0;left=0;bottom=0;right=0;align=left;spacingLeft=6;overflow=hidden;fillColor=none;" parent="9oEyipRwHzk4dOdtvLpS-26" vertex="1">
          <mxGeometry x="20" width="200" height="30" as="geometry" />
        </mxCell>
        <mxCell id="9oEyipRwHzk4dOdtvLpS-29" value="" style="shape=partialRectangle;collapsible=0;dropTarget=0;pointerEvents=0;fillColor=none;top=0;left=0;bottom=0;right=0;points=[[0,0.5],[1,0.5]];portConstraint=eastwest;" parent="9oEyipRwHzk4dOdtvLpS-16" vertex="1">
          <mxGeometry y="150" width="220" height="30" as="geometry" />
        </mxCell>
        <mxCell id="9oEyipRwHzk4dOdtvLpS-30" value="" style="shape=partialRectangle;connectable=0;fillColor=none;top=0;left=0;bottom=0;right=0;editable=1;overflow=hidden;" parent="9oEyipRwHzk4dOdtvLpS-29" vertex="1">
          <mxGeometry width="20" height="30" as="geometry" />
        </mxCell>
        <mxCell id="9oEyipRwHzk4dOdtvLpS-31" value="Cost_per_person  INT(6)" style="shape=partialRectangle;connectable=0;fillColor=none;top=0;left=0;bottom=0;right=0;align=left;spacingLeft=6;overflow=hidden;" parent="9oEyipRwHzk4dOdtvLpS-29" vertex="1">
          <mxGeometry x="20" width="200" height="30" as="geometry" />
        </mxCell>
        <mxCell id="9oEyipRwHzk4dOdtvLpS-32" value="" style="shape=partialRectangle;collapsible=0;dropTarget=0;pointerEvents=0;fillColor=none;top=0;left=0;bottom=0;right=0;points=[[0,0.5],[1,0.5]];portConstraint=eastwest;" parent="9oEyipRwHzk4dOdtvLpS-16" vertex="1">
          <mxGeometry y="180" width="220" height="30" as="geometry" />
        </mxCell>
        <mxCell id="9oEyipRwHzk4dOdtvLpS-33" value="" style="shape=partialRectangle;connectable=0;fillColor=none;top=0;left=0;bottom=0;right=0;editable=1;overflow=hidden;" parent="9oEyipRwHzk4dOdtvLpS-32" vertex="1">
          <mxGeometry width="20" height="30" as="geometry" />
        </mxCell>
        <mxCell id="9oEyipRwHzk4dOdtvLpS-34" value="Visiting_places   TEXT(1000)" style="shape=partialRectangle;connectable=0;fillColor=none;top=0;left=0;bottom=0;right=0;align=left;spacingLeft=6;overflow=hidden;" parent="9oEyipRwHzk4dOdtvLpS-32" vertex="1">
          <mxGeometry x="20" width="200" height="30" as="geometry" />
        </mxCell>
        <mxCell id="9oEyipRwHzk4dOdtvLpS-35" value="" style="shape=partialRectangle;collapsible=0;dropTarget=0;pointerEvents=0;fillColor=none;top=0;left=0;bottom=0;right=0;points=[[0,0.5],[1,0.5]];portConstraint=eastwest;" parent="9oEyipRwHzk4dOdtvLpS-16" vertex="1">
          <mxGeometry y="210" width="220" height="30" as="geometry" />
        </mxCell>
        <mxCell id="9oEyipRwHzk4dOdtvLpS-36" value="" style="shape=partialRectangle;connectable=0;fillColor=none;top=0;left=0;bottom=0;right=0;editable=1;overflow=hidden;" parent="9oEyipRwHzk4dOdtvLpS-35" vertex="1">
          <mxGeometry width="20" height="30" as="geometry" />
        </mxCell>
        <mxCell id="9oEyipRwHzk4dOdtvLpS-37" value="Fooding   BOOLEAN" style="shape=partialRectangle;connectable=0;fillColor=none;top=0;left=0;bottom=0;right=0;align=left;spacingLeft=6;overflow=hidden;" parent="9oEyipRwHzk4dOdtvLpS-35" vertex="1">
          <mxGeometry x="20" width="200" height="30" as="geometry" />
        </mxCell>
        <mxCell id="9oEyipRwHzk4dOdtvLpS-38" value="" style="shape=partialRectangle;collapsible=0;dropTarget=0;pointerEvents=0;fillColor=none;top=0;left=0;bottom=0;right=0;points=[[0,0.5],[1,0.5]];portConstraint=eastwest;" parent="9oEyipRwHzk4dOdtvLpS-16" vertex="1">
          <mxGeometry y="240" width="220" height="30" as="geometry" />
        </mxCell>
        <mxCell id="9oEyipRwHzk4dOdtvLpS-39" value="" style="shape=partialRectangle;connectable=0;fillColor=none;top=0;left=0;bottom=0;right=0;editable=1;overflow=hidden;" parent="9oEyipRwHzk4dOdtvLpS-38" vertex="1">
          <mxGeometry width="20" height="30" as="geometry" />
        </mxCell>
        <mxCell id="9oEyipRwHzk4dOdtvLpS-40" value="Travel_type   TEXT(10)" style="shape=partialRectangle;connectable=0;fillColor=none;top=0;left=0;bottom=0;right=0;align=left;spacingLeft=6;overflow=hidden;" parent="9oEyipRwHzk4dOdtvLpS-38" vertex="1">
          <mxGeometry x="20" width="200" height="30" as="geometry" />
        </mxCell>
        <mxCell id="9oEyipRwHzk4dOdtvLpS-41" value="" style="shape=partialRectangle;collapsible=0;dropTarget=0;pointerEvents=0;fillColor=none;top=0;left=0;bottom=0;right=0;points=[[0,0.5],[1,0.5]];portConstraint=eastwest;" parent="9oEyipRwHzk4dOdtvLpS-16" vertex="1">
          <mxGeometry y="270" width="220" height="30" as="geometry" />
        </mxCell>
        <mxCell id="9oEyipRwHzk4dOdtvLpS-42" value="" style="shape=partialRectangle;connectable=0;fillColor=none;top=0;left=0;bottom=0;right=0;editable=1;overflow=hidden;" parent="9oEyipRwHzk4dOdtvLpS-41" vertex="1">
          <mxGeometry width="20" height="30" as="geometry" />
        </mxCell>
        <mxCell id="9oEyipRwHzk4dOdtvLpS-43" value="Route   TEXT(200)" style="shape=partialRectangle;connectable=0;fillColor=none;top=0;left=0;bottom=0;right=0;align=left;spacingLeft=6;overflow=hidden;" parent="9oEyipRwHzk4dOdtvLpS-41" vertex="1">
          <mxGeometry x="20" width="200" height="30" as="geometry" />
        </mxCell>
        <mxCell id="9oEyipRwHzk4dOdtvLpS-44" value="" style="shape=partialRectangle;collapsible=0;dropTarget=0;pointerEvents=0;fillColor=none;top=0;left=0;bottom=0;right=0;points=[[0,0.5],[1,0.5]];portConstraint=eastwest;" parent="9oEyipRwHzk4dOdtvLpS-16" vertex="1">
          <mxGeometry y="300" width="220" height="30" as="geometry" />
        </mxCell>
        <mxCell id="9oEyipRwHzk4dOdtvLpS-45" value="" style="shape=partialRectangle;connectable=0;fillColor=none;top=0;left=0;bottom=0;right=0;editable=1;overflow=hidden;" parent="9oEyipRwHzk4dOdtvLpS-44" vertex="1">
          <mxGeometry width="20" height="30" as="geometry" />
        </mxCell>
        <mxCell id="9oEyipRwHzk4dOdtvLpS-46" value="Activities    TEXT(500)" style="shape=partialRectangle;connectable=0;fillColor=none;top=0;left=0;bottom=0;right=0;align=left;spacingLeft=6;overflow=hidden;" parent="9oEyipRwHzk4dOdtvLpS-44" vertex="1">
          <mxGeometry x="20" width="200" height="30" as="geometry" />
        </mxCell>
        <mxCell id="9oEyipRwHzk4dOdtvLpS-47" value="" style="shape=partialRectangle;collapsible=0;dropTarget=0;pointerEvents=0;fillColor=none;top=0;left=0;bottom=0;right=0;points=[[0,0.5],[1,0.5]];portConstraint=eastwest;" parent="9oEyipRwHzk4dOdtvLpS-16" vertex="1">
          <mxGeometry y="330" width="220" height="30" as="geometry" />
        </mxCell>
        <mxCell id="9oEyipRwHzk4dOdtvLpS-48" value="" style="shape=partialRectangle;connectable=0;fillColor=none;top=0;left=0;bottom=0;right=0;editable=1;overflow=hidden;" parent="9oEyipRwHzk4dOdtvLpS-47" vertex="1">
          <mxGeometry width="20" height="30" as="geometry" />
        </mxCell>
        <mxCell id="9oEyipRwHzk4dOdtvLpS-49" value="Description   TEXT(1000)" style="shape=partialRectangle;connectable=0;fillColor=none;top=0;left=0;bottom=0;right=0;align=left;spacingLeft=6;overflow=hidden;" parent="9oEyipRwHzk4dOdtvLpS-47" vertex="1">
          <mxGeometry x="20" width="200" height="30" as="geometry" />
        </mxCell>
        <mxCell id="9oEyipRwHzk4dOdtvLpS-238" value="" style="shape=partialRectangle;collapsible=0;dropTarget=0;pointerEvents=0;fillColor=none;top=0;left=0;bottom=0;right=0;points=[[0,0.5],[1,0.5]];portConstraint=eastwest;" parent="9oEyipRwHzk4dOdtvLpS-16" vertex="1">
          <mxGeometry y="360" width="220" height="30" as="geometry" />
        </mxCell>
        <mxCell id="9oEyipRwHzk4dOdtvLpS-239" value="" style="shape=partialRectangle;connectable=0;fillColor=none;top=0;left=0;bottom=0;right=0;editable=1;overflow=hidden;" parent="9oEyipRwHzk4dOdtvLpS-238" vertex="1">
          <mxGeometry width="20" height="30" as="geometry" />
        </mxCell>
        <mxCell id="9oEyipRwHzk4dOdtvLpS-240" value="isListed   BOOLEAN" style="shape=partialRectangle;connectable=0;fillColor=none;top=0;left=0;bottom=0;right=0;align=left;spacingLeft=6;overflow=hidden;" parent="9oEyipRwHzk4dOdtvLpS-238" vertex="1">
          <mxGeometry x="20" width="200" height="30" as="geometry" />
        </mxCell>
        <mxCell id="_K_8OyXdkfiA-0QEh-ps-1" value="" style="shape=partialRectangle;collapsible=0;dropTarget=0;pointerEvents=0;fillColor=none;top=0;left=0;bottom=0;right=0;points=[[0,0.5],[1,0.5]];portConstraint=eastwest;" parent="9oEyipRwHzk4dOdtvLpS-16" vertex="1">
          <mxGeometry y="390" width="220" height="30" as="geometry" />
        </mxCell>
        <mxCell id="_K_8OyXdkfiA-0QEh-ps-2" value="" style="shape=partialRectangle;connectable=0;fillColor=none;top=0;left=0;bottom=0;right=0;editable=1;overflow=hidden;" parent="_K_8OyXdkfiA-0QEh-ps-1" vertex="1">
          <mxGeometry width="20" height="30" as="geometry" />
        </mxCell>
        <mxCell id="_K_8OyXdkfiA-0QEh-ps-3" value="bemail   VARCHAR(255)" style="shape=partialRectangle;connectable=0;fillColor=none;top=0;left=0;bottom=0;right=0;align=left;spacingLeft=6;overflow=hidden;" parent="_K_8OyXdkfiA-0QEh-ps-1" vertex="1">
          <mxGeometry x="20" width="200" height="30" as="geometry" />
        </mxCell>
        <mxCell id="9oEyipRwHzk4dOdtvLpS-84" value="customer_list" style="shape=table;startSize=30;container=1;collapsible=1;childLayout=tableLayout;fixedRows=1;rowLines=0;fontStyle=1;align=center;resizeLast=1;" parent="1" vertex="1">
          <mxGeometry x="180" y="580" width="220" height="180" as="geometry">
            <mxRectangle x="360" y="670" width="110" height="30" as="alternateBounds" />
          </mxGeometry>
        </mxCell>
        <mxCell id="9oEyipRwHzk4dOdtvLpS-85" value="" style="shape=partialRectangle;collapsible=0;dropTarget=0;pointerEvents=0;fillColor=none;top=0;left=0;bottom=1;right=0;points=[[0,0.5],[1,0.5]];portConstraint=eastwest;" parent="9oEyipRwHzk4dOdtvLpS-84" vertex="1">
          <mxGeometry y="30" width="220" height="30" as="geometry" />
        </mxCell>
        <mxCell id="9oEyipRwHzk4dOdtvLpS-86" value="PK" style="shape=partialRectangle;connectable=0;fillColor=none;top=0;left=0;bottom=0;right=0;fontStyle=0;overflow=hidden;" parent="9oEyipRwHzk4dOdtvLpS-85" vertex="1">
          <mxGeometry width="20" height="30" as="geometry" />
        </mxCell>
        <mxCell id="9oEyipRwHzk4dOdtvLpS-87" value="Email  VARCHAR(255)" style="shape=partialRectangle;connectable=0;fillColor=none;top=0;left=0;bottom=0;right=0;align=left;spacingLeft=6;fontStyle=0;overflow=hidden;" parent="9oEyipRwHzk4dOdtvLpS-85" vertex="1">
          <mxGeometry x="20" width="200" height="30" as="geometry" />
        </mxCell>
        <mxCell id="9oEyipRwHzk4dOdtvLpS-91" value="" style="shape=partialRectangle;collapsible=0;dropTarget=0;pointerEvents=0;fillColor=none;top=0;left=0;bottom=0;right=0;points=[[0,0.5],[1,0.5]];portConstraint=eastwest;" parent="9oEyipRwHzk4dOdtvLpS-84" vertex="1">
          <mxGeometry y="60" width="220" height="30" as="geometry" />
        </mxCell>
        <mxCell id="9oEyipRwHzk4dOdtvLpS-92" value="" style="shape=partialRectangle;connectable=0;fillColor=none;top=0;left=0;bottom=0;right=0;editable=1;overflow=hidden;" parent="9oEyipRwHzk4dOdtvLpS-91" vertex="1">
          <mxGeometry width="20" height="30" as="geometry" />
        </mxCell>
        <mxCell id="9oEyipRwHzk4dOdtvLpS-93" value="Enc_Pass   VARCHAR(255)" style="shape=partialRectangle;connectable=0;fillColor=none;top=0;left=0;bottom=0;right=0;align=left;spacingLeft=6;overflow=hidden;" parent="9oEyipRwHzk4dOdtvLpS-91" vertex="1">
          <mxGeometry x="20" width="200" height="30" as="geometry" />
        </mxCell>
        <mxCell id="9oEyipRwHzk4dOdtvLpS-94" value="" style="shape=partialRectangle;collapsible=0;dropTarget=0;pointerEvents=0;fillColor=none;top=0;left=0;bottom=0;right=0;points=[[0,0.5],[1,0.5]];portConstraint=eastwest;" parent="9oEyipRwHzk4dOdtvLpS-84" vertex="1">
          <mxGeometry y="90" width="220" height="30" as="geometry" />
        </mxCell>
        <mxCell id="9oEyipRwHzk4dOdtvLpS-95" value="" style="shape=partialRectangle;connectable=0;fillColor=none;top=0;left=0;bottom=0;right=0;editable=1;overflow=hidden;" parent="9oEyipRwHzk4dOdtvLpS-94" vertex="1">
          <mxGeometry width="20" height="30" as="geometry" />
        </mxCell>
        <mxCell id="9oEyipRwHzk4dOdtvLpS-96" value="Name   TEXT(100)" style="shape=partialRectangle;connectable=0;fillColor=none;top=0;left=0;bottom=0;right=0;align=left;spacingLeft=6;overflow=hidden;" parent="9oEyipRwHzk4dOdtvLpS-94" vertex="1">
          <mxGeometry x="20" width="200" height="30" as="geometry" />
        </mxCell>
        <mxCell id="9oEyipRwHzk4dOdtvLpS-97" value="" style="shape=partialRectangle;collapsible=0;dropTarget=0;pointerEvents=0;fillColor=none;top=0;left=0;bottom=0;right=0;points=[[0,0.5],[1,0.5]];portConstraint=eastwest;" parent="9oEyipRwHzk4dOdtvLpS-84" vertex="1">
          <mxGeometry y="120" width="220" height="30" as="geometry" />
        </mxCell>
        <mxCell id="9oEyipRwHzk4dOdtvLpS-98" value="" style="shape=partialRectangle;connectable=0;fillColor=none;top=0;left=0;bottom=0;right=0;editable=1;overflow=hidden;" parent="9oEyipRwHzk4dOdtvLpS-97" vertex="1">
          <mxGeometry width="20" height="30" as="geometry" />
        </mxCell>
        <mxCell id="9oEyipRwHzk4dOdtvLpS-99" value="Contact   INTEGER(10)" style="shape=partialRectangle;connectable=0;fillColor=none;top=0;left=0;bottom=0;right=0;align=left;spacingLeft=6;overflow=hidden;" parent="9oEyipRwHzk4dOdtvLpS-97" vertex="1">
          <mxGeometry x="20" width="200" height="30" as="geometry" />
        </mxCell>
        <mxCell id="9oEyipRwHzk4dOdtvLpS-100" value="" style="shape=partialRectangle;collapsible=0;dropTarget=0;pointerEvents=0;fillColor=none;top=0;left=0;bottom=0;right=0;points=[[0,0.5],[1,0.5]];portConstraint=eastwest;" parent="9oEyipRwHzk4dOdtvLpS-84" vertex="1">
          <mxGeometry y="150" width="220" height="30" as="geometry" />
        </mxCell>
        <mxCell id="9oEyipRwHzk4dOdtvLpS-101" value="" style="shape=partialRectangle;connectable=0;fillColor=none;top=0;left=0;bottom=0;right=0;editable=1;overflow=hidden;" parent="9oEyipRwHzk4dOdtvLpS-100" vertex="1">
          <mxGeometry width="20" height="30" as="geometry" />
        </mxCell>
        <mxCell id="9oEyipRwHzk4dOdtvLpS-102" value="Pimage VARCHAR(255)" style="shape=partialRectangle;connectable=0;fillColor=none;top=0;left=0;bottom=0;right=0;align=left;spacingLeft=6;overflow=hidden;" parent="9oEyipRwHzk4dOdtvLpS-100" vertex="1">
          <mxGeometry x="20" width="200" height="30" as="geometry" />
        </mxCell>
        <mxCell id="9oEyipRwHzk4dOdtvLpS-103" value="business_list" style="shape=table;startSize=30;container=1;collapsible=1;childLayout=tableLayout;fixedRows=1;rowLines=0;fontStyle=1;align=center;resizeLast=1;" parent="1" vertex="1">
          <mxGeometry x="900" y="310" width="200" height="150" as="geometry" />
        </mxCell>
        <mxCell id="9oEyipRwHzk4dOdtvLpS-104" value="" style="shape=partialRectangle;collapsible=0;dropTarget=0;pointerEvents=0;fillColor=none;top=0;left=0;bottom=1;right=0;points=[[0,0.5],[1,0.5]];portConstraint=eastwest;" parent="9oEyipRwHzk4dOdtvLpS-103" vertex="1">
          <mxGeometry y="30" width="200" height="30" as="geometry" />
        </mxCell>
        <mxCell id="9oEyipRwHzk4dOdtvLpS-105" value="PK" style="shape=partialRectangle;connectable=0;fillColor=none;top=0;left=0;bottom=0;right=0;fontStyle=0;overflow=hidden;" parent="9oEyipRwHzk4dOdtvLpS-104" vertex="1">
          <mxGeometry width="20" height="30" as="geometry" />
        </mxCell>
        <mxCell id="9oEyipRwHzk4dOdtvLpS-106" value="Email  VARCHAR(255)" style="shape=partialRectangle;connectable=0;fillColor=none;top=0;left=0;bottom=0;right=0;align=left;spacingLeft=6;fontStyle=0;overflow=hidden;" parent="9oEyipRwHzk4dOdtvLpS-104" vertex="1">
          <mxGeometry x="20" width="180" height="30" as="geometry" />
        </mxCell>
        <mxCell id="9oEyipRwHzk4dOdtvLpS-107" value="" style="shape=partialRectangle;collapsible=0;dropTarget=0;pointerEvents=0;fillColor=none;top=0;left=0;bottom=1;right=0;points=[[0,0.5],[1,0.5]];portConstraint=eastwest;" parent="9oEyipRwHzk4dOdtvLpS-103" vertex="1">
          <mxGeometry y="60" width="200" height="30" as="geometry" />
        </mxCell>
        <mxCell id="9oEyipRwHzk4dOdtvLpS-108" value="" style="shape=partialRectangle;connectable=0;fillColor=none;top=0;left=0;bottom=0;right=0;fontStyle=0;overflow=hidden;" parent="9oEyipRwHzk4dOdtvLpS-107" vertex="1">
          <mxGeometry width="20" height="30" as="geometry" />
        </mxCell>
        <mxCell id="9oEyipRwHzk4dOdtvLpS-109" value="Name   TEXT(100)" style="shape=partialRectangle;connectable=0;fillColor=none;top=0;left=0;bottom=0;right=0;align=left;spacingLeft=6;fontStyle=0;overflow=hidden;shadow=0;" parent="9oEyipRwHzk4dOdtvLpS-107" vertex="1">
          <mxGeometry x="20" width="180" height="30" as="geometry" />
        </mxCell>
        <mxCell id="9oEyipRwHzk4dOdtvLpS-110" value="" style="shape=partialRectangle;collapsible=0;dropTarget=0;pointerEvents=0;fillColor=none;top=0;left=0;bottom=0;right=0;points=[[0,0.5],[1,0.5]];portConstraint=eastwest;" parent="9oEyipRwHzk4dOdtvLpS-103" vertex="1">
          <mxGeometry y="90" width="200" height="30" as="geometry" />
        </mxCell>
        <mxCell id="9oEyipRwHzk4dOdtvLpS-111" value="" style="shape=partialRectangle;connectable=0;fillColor=none;top=0;left=0;bottom=0;right=0;editable=1;overflow=hidden;" parent="9oEyipRwHzk4dOdtvLpS-110" vertex="1">
          <mxGeometry width="20" height="30" as="geometry" />
        </mxCell>
        <mxCell id="9oEyipRwHzk4dOdtvLpS-112" value="Enc_Pass   VARCHAR(255)" style="shape=partialRectangle;connectable=0;fillColor=none;top=0;left=0;bottom=0;right=0;align=left;spacingLeft=6;overflow=hidden;" parent="9oEyipRwHzk4dOdtvLpS-110" vertex="1">
          <mxGeometry x="20" width="180" height="30" as="geometry" />
        </mxCell>
        <mxCell id="9oEyipRwHzk4dOdtvLpS-116" value="" style="shape=partialRectangle;collapsible=0;dropTarget=0;pointerEvents=0;fillColor=none;top=0;left=0;bottom=0;right=0;points=[[0,0.5],[1,0.5]];portConstraint=eastwest;" parent="9oEyipRwHzk4dOdtvLpS-103" vertex="1">
          <mxGeometry y="120" width="200" height="30" as="geometry" />
        </mxCell>
        <mxCell id="9oEyipRwHzk4dOdtvLpS-117" value="" style="shape=partialRectangle;connectable=0;fillColor=none;top=0;left=0;bottom=0;right=0;editable=1;overflow=hidden;" parent="9oEyipRwHzk4dOdtvLpS-116" vertex="1">
          <mxGeometry width="20" height="30" as="geometry" />
        </mxCell>
        <mxCell id="9oEyipRwHzk4dOdtvLpS-118" value="Contact   INTEGER( 10)" style="shape=partialRectangle;connectable=0;fillColor=none;top=0;left=0;bottom=0;right=0;align=left;spacingLeft=6;overflow=hidden;" parent="9oEyipRwHzk4dOdtvLpS-116" vertex="1">
          <mxGeometry x="20" width="180" height="30" as="geometry" />
        </mxCell>
        <mxCell id="9oEyipRwHzk4dOdtvLpS-145" value="booked_packages" style="shape=table;startSize=30;container=1;collapsible=1;childLayout=tableLayout;fixedRows=1;rowLines=0;fontStyle=1;align=center;resizeLast=1;" parent="1" vertex="1">
          <mxGeometry x="670" y="670" width="210" height="90" as="geometry" />
        </mxCell>
        <mxCell id="9oEyipRwHzk4dOdtvLpS-146" value="" style="shape=partialRectangle;collapsible=0;dropTarget=0;pointerEvents=0;fillColor=none;top=0;left=0;bottom=1;right=0;points=[[0,0.5],[1,0.5]];portConstraint=eastwest;" parent="9oEyipRwHzk4dOdtvLpS-145" vertex="1">
          <mxGeometry y="30" width="210" height="30" as="geometry" />
        </mxCell>
        <mxCell id="9oEyipRwHzk4dOdtvLpS-147" value="PK" style="shape=partialRectangle;connectable=0;fillColor=none;top=0;left=0;bottom=0;right=0;fontStyle=0;overflow=hidden;" parent="9oEyipRwHzk4dOdtvLpS-146" vertex="1">
          <mxGeometry width="20" height="30" as="geometry" />
        </mxCell>
        <mxCell id="9oEyipRwHzk4dOdtvLpS-148" value="Username   VARCHAR(255)" style="shape=partialRectangle;connectable=0;fillColor=none;top=0;left=0;bottom=0;right=0;align=left;spacingLeft=6;fontStyle=0;overflow=hidden;" parent="9oEyipRwHzk4dOdtvLpS-146" vertex="1">
          <mxGeometry x="20" width="190" height="30" as="geometry" />
        </mxCell>
        <mxCell id="9oEyipRwHzk4dOdtvLpS-149" value="" style="shape=partialRectangle;collapsible=0;dropTarget=0;pointerEvents=0;fillColor=none;top=0;left=0;bottom=1;right=0;points=[[0,0.5],[1,0.5]];portConstraint=eastwest;" parent="9oEyipRwHzk4dOdtvLpS-145" vertex="1">
          <mxGeometry y="60" width="210" height="30" as="geometry" />
        </mxCell>
        <mxCell id="9oEyipRwHzk4dOdtvLpS-150" value="" style="shape=partialRectangle;connectable=0;fillColor=none;top=0;left=0;bottom=0;right=0;fontStyle=0;overflow=hidden;" parent="9oEyipRwHzk4dOdtvLpS-149" vertex="1">
          <mxGeometry width="20" height="30" as="geometry" />
        </mxCell>
        <mxCell id="9oEyipRwHzk4dOdtvLpS-151" value="Bid   VARCHAR(255)" style="shape=partialRectangle;connectable=0;fillColor=none;top=0;left=0;bottom=0;right=0;align=left;spacingLeft=6;fontStyle=0;overflow=hidden;" parent="9oEyipRwHzk4dOdtvLpS-149" vertex="1">
          <mxGeometry x="20" width="190" height="30" as="geometry" />
        </mxCell>
        <mxCell id="9oEyipRwHzk4dOdtvLpS-171" value="guest_info" style="shape=table;startSize=30;container=1;collapsible=1;childLayout=tableLayout;fixedRows=1;rowLines=0;fontStyle=1;align=center;resizeLast=1;" parent="1" vertex="1">
          <mxGeometry x="290" y="860" width="240" height="150" as="geometry" />
        </mxCell>
        <mxCell id="9oEyipRwHzk4dOdtvLpS-172" value="" style="shape=partialRectangle;collapsible=0;dropTarget=0;pointerEvents=0;fillColor=none;top=0;left=0;bottom=1;right=0;points=[[0,0.5],[1,0.5]];portConstraint=eastwest;" parent="9oEyipRwHzk4dOdtvLpS-171" vertex="1">
          <mxGeometry y="30" width="240" height="30" as="geometry" />
        </mxCell>
        <mxCell id="9oEyipRwHzk4dOdtvLpS-173" value="PK" style="shape=partialRectangle;connectable=0;fillColor=none;top=0;left=0;bottom=0;right=0;fontStyle=0;overflow=hidden;" parent="9oEyipRwHzk4dOdtvLpS-172" vertex="1">
          <mxGeometry width="20" height="30" as="geometry" />
        </mxCell>
        <mxCell id="9oEyipRwHzk4dOdtvLpS-174" value="Guardian_username  VARCHAR(255)" style="shape=partialRectangle;connectable=0;fillColor=none;top=0;left=0;bottom=0;right=0;align=left;spacingLeft=6;fontStyle=0;overflow=hidden;" parent="9oEyipRwHzk4dOdtvLpS-172" vertex="1">
          <mxGeometry x="20" width="220" height="30" as="geometry" />
        </mxCell>
        <mxCell id="9oEyipRwHzk4dOdtvLpS-175" value="" style="shape=partialRectangle;collapsible=0;dropTarget=0;pointerEvents=0;fillColor=none;top=0;left=0;bottom=1;right=0;points=[[0,0.5],[1,0.5]];portConstraint=eastwest;" parent="9oEyipRwHzk4dOdtvLpS-171" vertex="1">
          <mxGeometry y="60" width="240" height="30" as="geometry" />
        </mxCell>
        <mxCell id="9oEyipRwHzk4dOdtvLpS-176" value="PK" style="shape=partialRectangle;connectable=0;fillColor=none;top=0;left=0;bottom=0;right=0;fontStyle=0;overflow=hidden;" parent="9oEyipRwHzk4dOdtvLpS-175" vertex="1">
          <mxGeometry width="20" height="30" as="geometry" />
        </mxCell>
        <mxCell id="9oEyipRwHzk4dOdtvLpS-177" value="Guest_Name   TEXT(100)" style="shape=partialRectangle;connectable=0;fillColor=none;top=0;left=0;bottom=0;right=0;align=left;spacingLeft=6;fontStyle=0;overflow=hidden;" parent="9oEyipRwHzk4dOdtvLpS-175" vertex="1">
          <mxGeometry x="20" width="220" height="30" as="geometry" />
        </mxCell>
        <mxCell id="9oEyipRwHzk4dOdtvLpS-178" value="" style="shape=partialRectangle;collapsible=0;dropTarget=0;pointerEvents=0;fillColor=none;top=0;left=0;bottom=1;right=0;points=[[0,0.5],[1,0.5]];portConstraint=eastwest;" parent="9oEyipRwHzk4dOdtvLpS-171" vertex="1">
          <mxGeometry y="90" width="240" height="30" as="geometry" />
        </mxCell>
        <mxCell id="9oEyipRwHzk4dOdtvLpS-179" value="" style="shape=partialRectangle;connectable=0;fillColor=none;top=0;left=0;bottom=0;right=0;fontStyle=0;overflow=hidden;" parent="9oEyipRwHzk4dOdtvLpS-178" vertex="1">
          <mxGeometry width="20" height="30" as="geometry" />
        </mxCell>
        <mxCell id="9oEyipRwHzk4dOdtvLpS-180" value="Guest_age   INT(3)" style="shape=partialRectangle;connectable=0;fillColor=none;top=0;left=0;bottom=0;right=0;align=left;spacingLeft=6;fontStyle=0;overflow=hidden;" parent="9oEyipRwHzk4dOdtvLpS-178" vertex="1">
          <mxGeometry x="20" width="220" height="30" as="geometry" />
        </mxCell>
        <mxCell id="9oEyipRwHzk4dOdtvLpS-181" value="" style="shape=partialRectangle;collapsible=0;dropTarget=0;pointerEvents=0;fillColor=none;top=0;left=0;bottom=1;right=0;points=[[0,0.5],[1,0.5]];portConstraint=eastwest;" parent="9oEyipRwHzk4dOdtvLpS-171" vertex="1">
          <mxGeometry y="120" width="240" height="30" as="geometry" />
        </mxCell>
        <mxCell id="9oEyipRwHzk4dOdtvLpS-182" value="" style="shape=partialRectangle;connectable=0;fillColor=none;top=0;left=0;bottom=0;right=0;fontStyle=0;overflow=hidden;" parent="9oEyipRwHzk4dOdtvLpS-181" vertex="1">
          <mxGeometry width="20" height="30" as="geometry" />
        </mxCell>
        <mxCell id="9oEyipRwHzk4dOdtvLpS-183" value="Identification_no   VARCHAR(255)" style="shape=partialRectangle;connectable=0;fillColor=none;top=0;left=0;bottom=0;right=0;align=left;spacingLeft=6;fontStyle=0;overflow=hidden;" parent="9oEyipRwHzk4dOdtvLpS-181" vertex="1">
          <mxGeometry x="20" width="220" height="30" as="geometry" />
        </mxCell>
        <mxCell id="9oEyipRwHzk4dOdtvLpS-196" value="Package_info" style="shape=table;startSize=30;container=1;collapsible=1;childLayout=tableLayout;fixedRows=1;rowLines=0;fontStyle=1;align=center;resizeLast=1;" parent="1" vertex="1">
          <mxGeometry x="1020" y="580" width="200" height="210" as="geometry" />
        </mxCell>
        <mxCell id="hf0RXOYRYlcpUUbahjFG-17" value="" style="shape=partialRectangle;collapsible=0;dropTarget=0;pointerEvents=0;fillColor=none;top=0;left=0;bottom=1;right=0;points=[[0,0.5],[1,0.5]];portConstraint=eastwest;" parent="9oEyipRwHzk4dOdtvLpS-196" vertex="1">
          <mxGeometry y="30" width="200" height="30" as="geometry" />
        </mxCell>
        <mxCell id="hf0RXOYRYlcpUUbahjFG-18" value="PK" style="shape=partialRectangle;connectable=0;fillColor=none;top=0;left=0;bottom=0;right=0;fontStyle=0;overflow=hidden;" parent="hf0RXOYRYlcpUUbahjFG-17" vertex="1">
          <mxGeometry width="20" height="30" as="geometry" />
        </mxCell>
        <mxCell id="hf0RXOYRYlcpUUbahjFG-19" value="Bid   VARCHAR(255)" style="shape=partialRectangle;connectable=0;fillColor=none;top=0;left=0;bottom=0;right=0;align=left;spacingLeft=6;fontStyle=0;overflow=hidden;" parent="hf0RXOYRYlcpUUbahjFG-17" vertex="1">
          <mxGeometry x="20" width="180" height="30" as="geometry" />
        </mxCell>
        <mxCell id="9oEyipRwHzk4dOdtvLpS-197" value="" style="shape=partialRectangle;collapsible=0;dropTarget=0;pointerEvents=0;fillColor=none;top=0;left=0;bottom=1;right=0;points=[[0,0.5],[1,0.5]];portConstraint=eastwest;" parent="9oEyipRwHzk4dOdtvLpS-196" vertex="1">
          <mxGeometry y="60" width="200" height="30" as="geometry" />
        </mxCell>
        <mxCell id="9oEyipRwHzk4dOdtvLpS-198" value="" style="shape=partialRectangle;connectable=0;fillColor=none;top=0;left=0;bottom=0;right=0;fontStyle=0;overflow=hidden;" parent="9oEyipRwHzk4dOdtvLpS-197" vertex="1">
          <mxGeometry width="20" height="30" as="geometry" />
        </mxCell>
        <mxCell id="9oEyipRwHzk4dOdtvLpS-199" value="Pid   VARCHAR(255)" style="shape=partialRectangle;connectable=0;fillColor=none;top=0;left=0;bottom=0;right=0;align=left;spacingLeft=6;fontStyle=0;overflow=hidden;" parent="9oEyipRwHzk4dOdtvLpS-197" vertex="1">
          <mxGeometry x="20" width="180" height="30" as="geometry" />
        </mxCell>
        <mxCell id="9oEyipRwHzk4dOdtvLpS-200" value="" style="shape=partialRectangle;collapsible=0;dropTarget=0;pointerEvents=0;fillColor=none;top=0;left=0;bottom=0;right=0;points=[[0,0.5],[1,0.5]];portConstraint=eastwest;" parent="9oEyipRwHzk4dOdtvLpS-196" vertex="1">
          <mxGeometry y="90" width="200" height="30" as="geometry" />
        </mxCell>
        <mxCell id="9oEyipRwHzk4dOdtvLpS-201" value="" style="shape=partialRectangle;connectable=0;fillColor=none;top=0;left=0;bottom=0;right=0;editable=1;overflow=hidden;" parent="9oEyipRwHzk4dOdtvLpS-200" vertex="1">
          <mxGeometry width="20" height="30" as="geometry" />
        </mxCell>
        <mxCell id="9oEyipRwHzk4dOdtvLpS-202" value="FromDate   DATETIME" style="shape=partialRectangle;connectable=0;fillColor=none;top=0;left=0;bottom=0;right=0;align=left;spacingLeft=6;overflow=hidden;" parent="9oEyipRwHzk4dOdtvLpS-200" vertex="1">
          <mxGeometry x="20" width="180" height="30" as="geometry" />
        </mxCell>
        <mxCell id="9oEyipRwHzk4dOdtvLpS-215" value="" style="shape=partialRectangle;collapsible=0;dropTarget=0;pointerEvents=0;fillColor=none;top=0;left=0;bottom=0;right=0;points=[[0,0.5],[1,0.5]];portConstraint=eastwest;" parent="9oEyipRwHzk4dOdtvLpS-196" vertex="1">
          <mxGeometry y="120" width="200" height="30" as="geometry" />
        </mxCell>
        <mxCell id="9oEyipRwHzk4dOdtvLpS-216" value="" style="shape=partialRectangle;connectable=0;fillColor=none;top=0;left=0;bottom=0;right=0;editable=1;overflow=hidden;" parent="9oEyipRwHzk4dOdtvLpS-215" vertex="1">
          <mxGeometry width="20" height="30" as="geometry" />
        </mxCell>
        <mxCell id="9oEyipRwHzk4dOdtvLpS-217" value="ToDate   DATETIME" style="shape=partialRectangle;connectable=0;fillColor=none;top=0;left=0;bottom=0;right=0;align=left;spacingLeft=6;overflow=hidden;" parent="9oEyipRwHzk4dOdtvLpS-215" vertex="1">
          <mxGeometry x="20" width="180" height="30" as="geometry" />
        </mxCell>
        <mxCell id="9oEyipRwHzk4dOdtvLpS-209" value="" style="shape=partialRectangle;collapsible=0;dropTarget=0;pointerEvents=0;fillColor=none;top=0;left=0;bottom=0;right=0;points=[[0,0.5],[1,0.5]];portConstraint=eastwest;" parent="9oEyipRwHzk4dOdtvLpS-196" vertex="1">
          <mxGeometry y="150" width="200" height="30" as="geometry" />
        </mxCell>
        <mxCell id="9oEyipRwHzk4dOdtvLpS-210" value="" style="shape=partialRectangle;connectable=0;fillColor=none;top=0;left=0;bottom=0;right=0;editable=1;overflow=hidden;" parent="9oEyipRwHzk4dOdtvLpS-209" vertex="1">
          <mxGeometry width="20" height="30" as="geometry" />
        </mxCell>
        <mxCell id="9oEyipRwHzk4dOdtvLpS-211" value="Pkg_approval  VARCHAR(255)" style="shape=partialRectangle;connectable=0;fillColor=none;top=0;left=0;bottom=0;right=0;align=left;spacingLeft=6;overflow=hidden;" parent="9oEyipRwHzk4dOdtvLpS-209" vertex="1">
          <mxGeometry x="20" width="180" height="30" as="geometry" />
        </mxCell>
        <mxCell id="9oEyipRwHzk4dOdtvLpS-212" value="" style="shape=partialRectangle;collapsible=0;dropTarget=0;pointerEvents=0;fillColor=none;top=0;left=0;bottom=0;right=0;points=[[0,0.5],[1,0.5]];portConstraint=eastwest;" parent="9oEyipRwHzk4dOdtvLpS-196" vertex="1">
          <mxGeometry y="180" width="200" height="30" as="geometry" />
        </mxCell>
        <mxCell id="9oEyipRwHzk4dOdtvLpS-213" value="" style="shape=partialRectangle;connectable=0;fillColor=none;top=0;left=0;bottom=0;right=0;editable=1;overflow=hidden;" parent="9oEyipRwHzk4dOdtvLpS-212" vertex="1">
          <mxGeometry width="20" height="30" as="geometry" />
        </mxCell>
        <mxCell id="9oEyipRwHzk4dOdtvLpS-214" value="paid_status  BOOLEAN" style="shape=partialRectangle;connectable=0;fillColor=none;top=0;left=0;bottom=0;right=0;align=left;spacingLeft=6;overflow=hidden;" parent="9oEyipRwHzk4dOdtvLpS-212" vertex="1">
          <mxGeometry x="20" width="180" height="30" as="geometry" />
        </mxCell>
        <mxCell id="9oEyipRwHzk4dOdtvLpS-237" value="" style="edgeStyle=elbowEdgeStyle;fontSize=12;html=1;endArrow=ERoneToMany;entryX=1;entryY=0.5;entryDx=0;entryDy=0;" parent="1" target="_K_8OyXdkfiA-0QEh-ps-1" edge="1">
          <mxGeometry width="100" height="100" relative="1" as="geometry">
            <mxPoint x="900" y="350" as="sourcePoint" />
            <mxPoint x="940" y="460" as="targetPoint" />
            <Array as="points">
              <mxPoint x="780" y="250" />
            </Array>
          </mxGeometry>
        </mxCell>
        <mxCell id="9oEyipRwHzk4dOdtvLpS-253" value="" style="edgeStyle=entityRelationEdgeStyle;fontSize=12;html=1;endArrow=ERoneToMany;exitX=1;exitY=0.5;exitDx=0;exitDy=0;entryX=0;entryY=0.5;entryDx=0;entryDy=0;" parent="1" source="9oEyipRwHzk4dOdtvLpS-149" target="hf0RXOYRYlcpUUbahjFG-17" edge="1">
          <mxGeometry width="100" height="100" relative="1" as="geometry">
            <mxPoint x="840" y="870" as="sourcePoint" />
            <mxPoint x="1020" y="634" as="targetPoint" />
          </mxGeometry>
        </mxCell>
        <mxCell id="9oEyipRwHzk4dOdtvLpS-255" value="" style="edgeStyle=elbowEdgeStyle;fontSize=12;html=1;endArrow=ERmandOne;startArrow=ERmandOne;entryX=0.005;entryY=0.233;entryDx=0;entryDy=0;entryPerimeter=0;" parent="1" target="9oEyipRwHzk4dOdtvLpS-146" edge="1">
          <mxGeometry width="100" height="100" relative="1" as="geometry">
            <mxPoint x="402" y="616" as="sourcePoint" />
            <mxPoint x="530" y="810" as="targetPoint" />
          </mxGeometry>
        </mxCell>
        <mxCell id="9oEyipRwHzk4dOdtvLpS-261" value="" style="edgeStyle=elbowEdgeStyle;fontSize=12;html=1;endArrow=ERoneToMany;entryX=1;entryY=0.5;entryDx=0;entryDy=0;exitX=0;exitY=0.833;exitDx=0;exitDy=0;exitPerimeter=0;" parent="1" source="9oEyipRwHzk4dOdtvLpS-146" target="9oEyipRwHzk4dOdtvLpS-172" edge="1">
          <mxGeometry width="100" height="100" relative="1" as="geometry">
            <mxPoint x="600" y="775" as="sourcePoint" />
            <mxPoint x="390" y="910" as="targetPoint" />
            <Array as="points">
              <mxPoint x="620" y="890" />
              <mxPoint x="580" y="960" />
              <mxPoint x="560" y="870" />
            </Array>
          </mxGeometry>
        </mxCell>
        <mxCell id="hf0RXOYRYlcpUUbahjFG-43" value="" style="edgeStyle=elbowEdgeStyle;fontSize=12;html=1;endArrow=ERmandOne;startArrow=ERmandOne;exitX=0;exitY=0.5;exitDx=0;exitDy=0;entryX=1.009;entryY=0.8;entryDx=0;entryDy=0;entryPerimeter=0;" parent="1" source="9oEyipRwHzk4dOdtvLpS-197" target="9oEyipRwHzk4dOdtvLpS-17" edge="1">
          <mxGeometry width="100" height="100" relative="1" as="geometry">
            <mxPoint x="890" y="650" as="sourcePoint" />
            <mxPoint x="990" y="550" as="targetPoint" />
            <Array as="points">
              <mxPoint x="760" y="560" />
              <mxPoint x="770" y="580" />
            </Array>
          </mxGeometry>
        </mxCell>
        <mxCell id="DwNKdBd_GaAhbJMUmb-U-1" value="review" style="shape=table;startSize=30;container=1;collapsible=1;childLayout=tableLayout;fixedRows=1;rowLines=0;fontStyle=1;align=center;resizeLast=1;" vertex="1" parent="1">
          <mxGeometry x="-270" y="580" width="220" height="210" as="geometry">
            <mxRectangle x="360" y="670" width="110" height="30" as="alternateBounds" />
          </mxGeometry>
        </mxCell>
        <mxCell id="DwNKdBd_GaAhbJMUmb-U-2" value="" style="shape=partialRectangle;collapsible=0;dropTarget=0;pointerEvents=0;fillColor=none;top=0;left=0;bottom=1;right=0;points=[[0,0.5],[1,0.5]];portConstraint=eastwest;" vertex="1" parent="DwNKdBd_GaAhbJMUmb-U-1">
          <mxGeometry y="30" width="220" height="30" as="geometry" />
        </mxCell>
        <mxCell id="DwNKdBd_GaAhbJMUmb-U-3" value="PK" style="shape=partialRectangle;connectable=0;fillColor=none;top=0;left=0;bottom=0;right=0;fontStyle=0;overflow=hidden;" vertex="1" parent="DwNKdBd_GaAhbJMUmb-U-2">
          <mxGeometry width="20" height="30" as="geometry" />
        </mxCell>
        <mxCell id="DwNKdBd_GaAhbJMUmb-U-4" value="Email  VARCHAR(255)" style="shape=partialRectangle;connectable=0;fillColor=none;top=0;left=0;bottom=0;right=0;align=left;spacingLeft=6;fontStyle=0;overflow=hidden;" vertex="1" parent="DwNKdBd_GaAhbJMUmb-U-2">
          <mxGeometry x="20" width="200" height="30" as="geometry" />
        </mxCell>
        <mxCell id="DwNKdBd_GaAhbJMUmb-U-5" value="" style="shape=partialRectangle;collapsible=0;dropTarget=0;pointerEvents=0;fillColor=none;top=0;left=0;bottom=0;right=0;points=[[0,0.5],[1,0.5]];portConstraint=eastwest;" vertex="1" parent="DwNKdBd_GaAhbJMUmb-U-1">
          <mxGeometry y="60" width="220" height="30" as="geometry" />
        </mxCell>
        <mxCell id="DwNKdBd_GaAhbJMUmb-U-6" value="PK" style="shape=partialRectangle;connectable=0;fillColor=none;top=0;left=0;bottom=0;right=0;editable=1;overflow=hidden;" vertex="1" parent="DwNKdBd_GaAhbJMUmb-U-5">
          <mxGeometry width="20" height="30" as="geometry" />
        </mxCell>
        <mxCell id="DwNKdBd_GaAhbJMUmb-U-7" value="Pid   VARCHAR(255)" style="shape=partialRectangle;connectable=0;fillColor=none;top=0;left=0;bottom=0;right=0;align=left;spacingLeft=6;overflow=hidden;" vertex="1" parent="DwNKdBd_GaAhbJMUmb-U-5">
          <mxGeometry x="20" width="200" height="30" as="geometry" />
        </mxCell>
        <mxCell id="DwNKdBd_GaAhbJMUmb-U-17" value="" style="shape=partialRectangle;collapsible=0;dropTarget=0;pointerEvents=0;fillColor=none;top=0;left=0;bottom=0;right=0;points=[[0,0.5],[1,0.5]];portConstraint=eastwest;" vertex="1" parent="DwNKdBd_GaAhbJMUmb-U-1">
          <mxGeometry y="90" width="220" height="30" as="geometry" />
        </mxCell>
        <mxCell id="DwNKdBd_GaAhbJMUmb-U-18" value="" style="shape=partialRectangle;connectable=0;fillColor=none;top=0;left=0;bottom=0;right=0;editable=1;overflow=hidden;" vertex="1" parent="DwNKdBd_GaAhbJMUmb-U-17">
          <mxGeometry width="20" height="30" as="geometry" />
        </mxCell>
        <mxCell id="DwNKdBd_GaAhbJMUmb-U-19" value="Bid   VARCHAR(255)" style="shape=partialRectangle;connectable=0;fillColor=none;top=0;left=0;bottom=0;right=0;align=left;spacingLeft=6;overflow=hidden;" vertex="1" parent="DwNKdBd_GaAhbJMUmb-U-17">
          <mxGeometry x="20" width="200" height="30" as="geometry" />
        </mxCell>
        <mxCell id="DwNKdBd_GaAhbJMUmb-U-8" value="" style="shape=partialRectangle;collapsible=0;dropTarget=0;pointerEvents=0;fillColor=none;top=0;left=0;bottom=0;right=0;points=[[0,0.5],[1,0.5]];portConstraint=eastwest;" vertex="1" parent="DwNKdBd_GaAhbJMUmb-U-1">
          <mxGeometry y="120" width="220" height="30" as="geometry" />
        </mxCell>
        <mxCell id="DwNKdBd_GaAhbJMUmb-U-9" value="" style="shape=partialRectangle;connectable=0;fillColor=none;top=0;left=0;bottom=0;right=0;editable=1;overflow=hidden;" vertex="1" parent="DwNKdBd_GaAhbJMUmb-U-8">
          <mxGeometry width="20" height="30" as="geometry" />
        </mxCell>
        <mxCell id="DwNKdBd_GaAhbJMUmb-U-10" value="Description   TEXT(1000)" style="shape=partialRectangle;connectable=0;fillColor=none;top=0;left=0;bottom=0;right=0;align=left;spacingLeft=6;overflow=hidden;" vertex="1" parent="DwNKdBd_GaAhbJMUmb-U-8">
          <mxGeometry x="20" width="200" height="30" as="geometry" />
        </mxCell>
        <mxCell id="DwNKdBd_GaAhbJMUmb-U-11" value="" style="shape=partialRectangle;collapsible=0;dropTarget=0;pointerEvents=0;fillColor=none;top=0;left=0;bottom=0;right=0;points=[[0,0.5],[1,0.5]];portConstraint=eastwest;" vertex="1" parent="DwNKdBd_GaAhbJMUmb-U-1">
          <mxGeometry y="150" width="220" height="30" as="geometry" />
        </mxCell>
        <mxCell id="DwNKdBd_GaAhbJMUmb-U-12" value="" style="shape=partialRectangle;connectable=0;fillColor=none;top=0;left=0;bottom=0;right=0;editable=1;overflow=hidden;" vertex="1" parent="DwNKdBd_GaAhbJMUmb-U-11">
          <mxGeometry width="20" height="30" as="geometry" />
        </mxCell>
        <mxCell id="DwNKdBd_GaAhbJMUmb-U-13" value="Rating INT(1)" style="shape=partialRectangle;connectable=0;fillColor=none;top=0;left=0;bottom=0;right=0;align=left;spacingLeft=6;overflow=hidden;" vertex="1" parent="DwNKdBd_GaAhbJMUmb-U-11">
          <mxGeometry x="20" width="200" height="30" as="geometry" />
        </mxCell>
        <mxCell id="DwNKdBd_GaAhbJMUmb-U-14" value="" style="shape=partialRectangle;collapsible=0;dropTarget=0;pointerEvents=0;fillColor=none;top=0;left=0;bottom=0;right=0;points=[[0,0.5],[1,0.5]];portConstraint=eastwest;" vertex="1" parent="DwNKdBd_GaAhbJMUmb-U-1">
          <mxGeometry y="180" width="220" height="30" as="geometry" />
        </mxCell>
        <mxCell id="DwNKdBd_GaAhbJMUmb-U-15" value="" style="shape=partialRectangle;connectable=0;fillColor=none;top=0;left=0;bottom=0;right=0;editable=1;overflow=hidden;" vertex="1" parent="DwNKdBd_GaAhbJMUmb-U-14">
          <mxGeometry width="20" height="30" as="geometry" />
        </mxCell>
        <mxCell id="DwNKdBd_GaAhbJMUmb-U-16" value="Pimage VARCHAR(255)" style="shape=partialRectangle;connectable=0;fillColor=none;top=0;left=0;bottom=0;right=0;align=left;spacingLeft=6;overflow=hidden;" vertex="1" parent="DwNKdBd_GaAhbJMUmb-U-14">
          <mxGeometry x="20" width="200" height="30" as="geometry" />
        </mxCell>
        <mxCell id="DwNKdBd_GaAhbJMUmb-U-21" value="" style="edgeStyle=entityRelationEdgeStyle;fontSize=12;html=1;endArrow=ERoneToMany;entryX=1;entryY=0.5;entryDx=0;entryDy=0;exitX=0;exitY=0.5;exitDx=0;exitDy=0;" edge="1" parent="1" source="9oEyipRwHzk4dOdtvLpS-85" target="DwNKdBd_GaAhbJMUmb-U-2">
          <mxGeometry width="100" height="100" relative="1" as="geometry">
            <mxPoint x="10" y="740" as="sourcePoint" />
            <mxPoint x="110" y="640" as="targetPoint" />
          </mxGeometry>
        </mxCell>
        <mxCell id="DwNKdBd_GaAhbJMUmb-U-23" value="" style="edgeStyle=elbowEdgeStyle;fontSize=12;html=1;endArrow=ERoneToMany;entryX=1;entryY=0.5;entryDx=0;entryDy=0;exitX=0;exitY=0.5;exitDx=0;exitDy=0;" edge="1" parent="1" source="9oEyipRwHzk4dOdtvLpS-17" target="DwNKdBd_GaAhbJMUmb-U-5">
          <mxGeometry width="100" height="100" relative="1" as="geometry">
            <mxPoint x="90" y="440" as="sourcePoint" />
            <mxPoint x="190" y="340" as="targetPoint" />
            <Array as="points">
              <mxPoint x="100" y="540" />
            </Array>
          </mxGeometry>
        </mxCell>
      </root>
    </mxGraphModel>
  </diagram>
</mxfile>
